<svg height="512pt" viewBox="0 0 512.00427 512" width="512pt" xmlns="http://www.w3.org/2000/svg"><path d="m375.410156 452.261719c0-2.441407-1.066406-4.710938-2.816406-6.398438-.453125-.4375-.886719-.886719-1.324219-1.324219-1.695312-1.699218-3.394531-3.394531-5.09375-5.09375-2.492187-2.492187-4.984375-4.992187-7.484375-7.484374-2.941406-2.941407-5.878906-5.878907-8.824218-8.824219-3.035157-3.035157-6.074219-6.074219-9.113282-9.113281-2.78125-2.78125-5.5625-5.5625-8.34375-8.34375-2.175781-2.175782-4.359375-4.351563-6.535156-6.539063-1.222656-1.21875-2.449219-2.449219-3.671875-3.667969-.144531-.144531-.289063-.289062-.433594-.433594-3.328125-3.335937-8.738281-3.335937-12.066406 0-3.335937 3.335938-3.335937 8.726563 0 12.066407l36.625 36.632812h-227.542969c-4.164062-28.894531-29.019531-51.199219-59.050781-51.199219-32.9375 0-59.73046875 26.800782-59.73046875 59.730469 0 32.929688 26.79296875 59.734375 59.73046875 59.734375 30.039063 0 54.886719-22.304687 59.050781-51.199218h227.542969l-36.625 36.632812c-3.335937 3.335938-3.335937 8.730469 0 12.066406 1.664063 1.664063 3.847656 2.5 6.03125 2.5 2.1875 0 4.371094-.835937 6.035156-2.5.734375-.734375 1.464844-1.46875 2.199219-2.203125 1.929688-1.933593 3.867188-3.863281 5.796875-5.792969 2.730469-2.730468 5.460937-5.460937 8.191406-8.191406 3.132813-3.132812 6.261719-6.261718 9.394531-9.394531 3.132813-3.132813 6.261719-6.265625 9.394532-9.394531 2.730468-2.730469 5.460937-5.460938 8.191406-8.203125 1.9375-1.9375 3.867188-3.863281 5.804688-5.800781 2.242187-2.253907 4.46875-4.371094 4.648437-7.792969.011719-.160157.019531-.316407.019531-.46875zm0 0"/><path d="m497.4375 202.296875c3.335938 3.335937 8.738281 3.335937 12.0625 0 3.339844-3.339844 3.339844-8.730469 0-12.066406l-51.191406-51.191407c-1.542969-1.546874-3.675782-2.511718-6.039063-2.511718s-4.496093.957031-6.042969 2.511718l-51.191406 51.191407c-3.335937 3.335937-3.335937 8.726562 0 12.066406 1.664063 1.664063 3.847656 2.5 6.035156 2.5 2.183594 0 4.367188-.835937 6.03125-2.5l36.632813-36.636719v227.550782c-28.902344 4.164062-51.199219 29.023437-51.199219 59.050781 0 32.929687 26.796875 59.734375 59.734375 59.734375s59.734375-26.804688 59.734375-59.734375c0-30.027344-22.300781-54.886719-51.203125-59.050781v-227.550782zm0 0"/><path d="m136.59375 59.796875c.035156 4.472656 3.832031 7.347656 6.742188 10.257813 3.191406 3.191406 6.382812 6.382812 9.574218 9.582031 4.070313 4.0625 8.132813 8.132812 12.195313 12.195312 4.035156 4.035157 8.0625 8.0625 12.101562 12.101563 3.085938 3.097656 6.183594 6.183594 9.273438 9.28125 1.246093 1.253906 2.5 2.5 3.753906 3.753906 1.664063 1.664062 3.851563 2.503906 6.035156 2.503906 2.183594 0 4.367188-.839844 6.03125-2.503906 3.335938-3.335938 3.335938-8.726562 0-12.0625l-36.632812-36.636719h227.550781c4.164062 28.894531 29.011719 51.203125 59.050781 51.203125 32.9375 0 59.734375-26.804687 59.734375-59.734375 0-32.929687-26.796875-59.73437475-59.734375-59.73437475-30.039062 0-54.886719 22.30468775-59.050781 51.19921875h-227.550781l36.625-36.632813c3.335937-3.335937 3.335937-8.730468 0-12.066406-3.335938-3.335937-8.738281-3.335937-12.066407 0-1.210937 1.210938-2.421874 2.425782-3.632812 3.644532-3.046875 3.046874-6.09375 6.09375-9.140625 9.140624-3.992187 3.992188-7.988281 7.984376-11.972656 11.980469-4.054688 4.050781-8.105469 8.105469-12.152344 12.148438-3.226563 3.226562-6.441406 6.453125-9.667969 9.671875-2.472656 2.464844-5.957031 5.117187-6.808594 8.601562-.171874.664063-.257812 1.347656-.257812 2.105469zm0 0"/><path d="m14.570312 309.695312c-3.339843-3.335937-8.738281-3.335937-12.066406 0-3.339844 3.335938-3.339844 8.730469 0 12.066407 1.304688 1.304687 2.617188 2.613281 3.921875 3.925781 3.253907 3.25 6.503907 6.503906 9.753907 9.753906 4.199218 4.199219 8.398437 8.394532 12.597656 12.59375 4.144531 4.148438 8.292968 8.296875 12.441406 12.441406 3.097656 3.097657 6.195312 6.195313 9.285156 9.292969 2.542969 2.542969 4.855469 5.472657 8.753906 5.675781 4.683594.238282 7.601563-3.558593 10.589844-6.546874 3.148438-3.148438 6.296875-6.304688 9.453125-9.453126 4.046875-4.042968 8.089844-8.097656 12.144531-12.144531 4.042969-4.042969 8.082032-8.089843 12.125-12.125 3.140626-3.132812 6.273438-6.269531 9.414063-9.402343 1.332031-1.332032 2.652344-2.65625 3.992187-3.996094 3.335938-3.335938 3.335938-8.726563 0-12.0625-3.328124-3.339844-8.738281-3.339844-12.066406 0l-36.640625 36.632812v-227.550781c28.902344-4.164063 51.199219-29.023437 51.199219-59.050781 0-32.929688-26.792969-59.7343752-59.734375-59.7343752-32.9375 0-59.73046875 26.8046872-59.73046875 59.7343752 0 30.027344 22.29687475 54.886718 51.19921875 59.050781v227.550781zm0 0"/><path d="m401.070312 273.0625v-34.132812c0-4.71875-3.824218-8.535157-8.535156-8.535157h-16.476562c-3.730469 0-7.023438-2.328125-8.003906-5.664062-3.117188-10.582031-6.195313-18.613281-9.429688-24.542969-1.683594-3.089844-1.015625-7.089844 1.613281-9.726562l11.664063-11.65625c1.605468-1.605469 2.5-3.765626 2.5-6.035157s-.894532-4.4375-2.5-6.03125l-26.632813-26.632812c-3.335937-3.335938-8.730469-3.335938-12.066406 0l-11.664063 11.65625c-2.636718 2.644531-6.621093 3.308593-9.730468 1.613281-5.929688-3.234375-13.960938-6.316406-24.539063-9.421875-3.335937-.980469-5.667969-4.273437-5.667969-8.011719v-16.480468c0-4.71875-3.824218-8.53125-8.53125-8.53125h-34.136718c-4.707032 0-8.53125 3.8125-8.53125 8.53125v16.480468c0 3.738282-2.328125 7.03125-5.667969 8.011719-10.578125 3.105469-18.609375 6.195313-24.546875 9.421875-3.082031 1.695312-7.085938 1.023438-9.722656-1.613281l-11.65625-11.65625c-3.335938-3.335938-8.738282-3.335938-12.066406 0l-26.632813 26.632812c-1.601563 1.601563-2.5 3.761719-2.5 6.03125s.898437 4.4375 2.5 6.035157l11.65625 11.65625c2.636719 2.636718 3.304687 6.628906 1.625 9.726562-3.234375 5.929688-6.324219 13.960938-9.429687 24.542969-.992188 3.335937-4.285157 5.664062-8.015626 5.664062h-16.476562c-4.710938 0-8.535156 3.816407-8.535156 8.535157v34.132812c0 4.71875 3.824218 8.535156 8.535156 8.535156h16.476562c3.738282 0 7.023438 2.328125 8.003907 5.664063 3.117187 10.582031 6.207031 18.613281 9.429687 24.542969 1.683594 3.089843 1.023438 7.089843-1.613281 9.726562l-11.664063 11.65625c-1.601562 1.605469-2.5 3.765625-2.5 6.035156 0 2.269532.898438 4.4375 2.5 6.03125l26.632813 26.632813c3.335937 3.335937 8.730469 3.335937 12.066406 0l11.664063-11.65625c2.636718-2.636719 6.632812-3.3125 9.730468-1.613281 5.929688 3.234374 13.960938 6.316406 24.539063 9.421874 3.339844.980469 5.667969 4.273438 5.667969 8.011719v16.476563c0 4.71875 3.824218 8.535156 8.53125 8.535156h34.136718c4.707032 0 8.53125-3.816406 8.53125-8.535156v-16.476563c0-3.738281 2.332032-7.03125 5.667969-8.011719 10.578125-3.105468 18.601563-6.195312 24.550781-9.421874 3.078126-1.699219 7.082032-1.007813 9.71875 1.613281l11.664063 11.65625c3.335937 3.335937 8.738281 3.335937 12.066406 0l26.632813-26.632813c1.605468-1.605468 2.5-3.761718 2.5-6.03125 0-2.269531-.894532-4.4375-2.5-6.035156l-11.664063-11.65625c-2.636719-2.636719-3.304687-6.628906-1.613281-9.726562 3.234375-5.929688 6.3125-13.960938 9.429688-24.542969.988281-3.335938 4.28125-5.664063 8.011718-5.664063h16.476563c4.703125 0 8.527343-3.816406 8.527343-8.535156zm-181.703124 2.5c3.335937 3.335938 3.335937 8.730469 0 12.066406-1.664063 1.664063-3.847657 2.5-6.03125 2.5-2.183594 0-4.371094-.835937-6.035157-2.5l-25.597656-25.601562c-3.335937-3.335938-3.335937-8.726563 0-12.066406l25.597656-25.597657c3.328125-3.335937 8.738281-3.335937 12.066407 0 3.335937 3.335938 3.335937 8.730469 0 12.066407l-19.558594 19.566406zm53.367187-51.363281-17.066406 59.734375c-1.066407 3.746094-4.488281 6.195312-8.199219 6.195312-.777344 0-1.5625-.109375-2.347656-.324218-4.53125-1.296876-7.160156-6.023438-5.863282-10.546876l17.070313-59.734374c1.296875-4.53125 6.023437-7.125 10.546875-5.871094 4.53125 1.296875 7.15625 6.027344 5.859375 10.546875zm57.566406 37.828125-25.597656 25.601562c-1.664063 1.664063-3.851563 2.5-6.035156 2.5-2.183594 0-4.367188-.835937-6.03125-2.5-3.335938-3.335937-3.335938-8.730468 0-12.066406l19.566406-19.566406-19.566406-19.566406c-3.335938-3.335938-3.335938-8.730469 0-12.066407 3.328125-3.335937 8.738281-3.335937 12.066406 0l25.597656 25.597657c3.328125 3.339843 3.328125 8.730468 0 12.066406zm0 0"/></svg>